<?xml version="1.0" standalone="no"?><!DOCTYPE svg PUBLIC "-//W3C//DTD SVG 1.1//EN" "http://www.w3.org/Graphics/SVG/1.1/DTD/svg11.dtd"><svg class="icon" width="200px" height="200.00px" viewBox="0 0 1024 1024" version="1.1" xmlns="http://www.w3.org/2000/svg"><path fill="#333333" d="M0 715.259V308.741c0-50.375 33.716-94.518 82.316-107.773l5.12-1.396a1613.589 1613.589 0 0 1 849.127 0l5.12 1.396c48.6 13.255 82.316 57.398 82.316 107.773v406.518c0 50.375-33.716 94.518-82.316 107.773l-5.12 1.396a1613.589 1613.589 0 0 1-849.127 0l-5.12-1.396C33.716 809.777 0 765.634 0 715.259zM745.619 335.403c-45.436 0-86.919 17.237-118.281 45.502v-45.511H391.854v329.558L306.559 557.56c36.304-19.472 61-57.773 61-101.852v-2.358c0-65.107-52.769-117.893-117.876-117.914l-137.641-0.042v353.741h70.748V571.222h47.889l84.759 117.917h95.626l-0.003-0.003h51.541V549.704h110.172c17.229 79.595 88.177 139.44 172.845 139.44 8.986 0 17.793-0.665 26.419-1.971v-72.09a107.037 107.037 0 0 1-26.419 3.302c-58.598 0-106.112-47.514-106.112-106.112 0-58.624 47.514-106.138 106.112-106.138 58.624 0 106.138 47.514 106.138 106.138 0 9.114-1.152 17.946-3.328 26.394h72.089a175.938 175.938 0 0 0 1.971-26.394c0.001-97.535-79.334-176.87-176.87-176.87z m-562.829 70.74h66.516c26.049 0 47.166 21.117 47.166 47.165v5.896c0 26.049-21.117 47.165-47.166 47.165H182.79V406.143z m279.812 0h141.626c-17.044 22.649-28.778 49.504-33.344 78.709H462.602v-78.709zM911.668 575.907H835.59l-76.799-76.806c-7.273-7.273-19.055-7.273-26.328 0s-7.273 19.055 0 26.327l76.804 76.81v76.068l65.163 65.164v-102.4h102.4l-65.162-65.163z" /></svg>